<svg xmlns="http://www.w3.org/2000/svg" enable-background="new 0 0 64 64" viewBox="0 0 64 64" id="cloud-connection"><path fill="#2d2e63" d="M50.2,47.7H13.8V26.9c0-0.3,0.2-0.5,0.5-0.5h35.3c0.3,0,0.5,0.2,0.5,0.5V47.7z M52.1,38V26.9
		c0-1.4-1.1-2.5-2.5-2.5H14.3c-1.4,0-2.5,1.1-2.5,2.5v11.3h-1.7c-4.5,0-8.3-3.7-8.3-8.2s3.7-8.3,8.3-8.3c0.1,0,0.2,0,0.3,0l0.2,0
		c0.3,0,0.6-0.1,0.8-0.4c0.2-0.3,0.2-0.6,0.1-0.9c-0.4-0.8-0.5-1.7-0.5-2.6c0-3.7,3-6.7,6.7-6.7c0.8,0,1.6,0.1,2.4,0.4
		c0.5,0.2,1,0,1.2-0.5c2.6-5.5,8.1-9,14.2-9c7.5,0,14,5.3,15.4,12.6c0.1,0.4,0.4,0.7,0.8,0.8c5.7,0.7,10.1,5.6,10.1,11.4
		C62.1,32.5,57.8,37.3,52.1,38z M52.9,13.5C51,5.6,43.9,0,35.7,0c-6.6,0-12.5,3.5-15.6,9.3C19.4,9.1,18.7,9,17.9,9
		c-4.8,0-8.7,3.9-8.7,8.7c0,0.7,0.1,1.4,0.2,2C4.2,20.1,0,24.5,0,29.9c0,5.6,4.6,10.2,10.2,10.2h1.7v12.3c0,1.4,1.1,2.5,2.5,2.5H24
		v3.8h-1.2c-2.4,0-4.4,2-4.4,4.4c0,0.5,0.4,1,1,1h25.3c0.5,0,1-0.4,1-1c0-2.4-2-4.4-4.4-4.4H40v-3.8h9.6c1.4,0,2.5-1.1,2.5-2.5V40
		C58.9,39.2,64,33.6,64,26.7C64,20.2,59.3,14.6,52.9,13.5z M41.2,60.6c1,0,1.9,0.6,2.3,1.5H20.5c0.4-0.9,1.3-1.5,2.3-1.5H41.2z
		 M25.9,58.6v-3.8h12.2v3.8H25.9z M50.2,52.4c0,0.3-0.2,0.5-0.5,0.5H39.1c0,0,0,0,0,0H25c0,0,0,0,0,0H14.3c-0.3,0-0.5-0.2-0.5-0.5
		v-2.8h36.4V52.4z"></path><path fill="#edc45f" d="M43.5,62.1H20.5c0.4-0.9,1.3-1.5,2.3-1.5h18.4C42.2,60.6,43.1,61.2,43.5,62.1z"></path><rect width="12.2" height="3.8" x="25.9" y="54.9" fill="#edc45f"></rect><path fill="#ffdc7b" d="M50.2,49.6v2.8c0,0.3-0.2,0.5-0.5,0.5H39.1c0,0,0,0,0,0H25c0,0,0,0,0,0H14.3c-0.3,0-0.5-0.2-0.5-0.5v-2.8H50.2
		z"></path><path fill="#9fd5f4" d="M62.1,26.7c0,5.8-4.3,10.6-9.9,11.4V26.9c0-1.4-1.1-2.5-2.5-2.5H14.3c-1.4,0-2.5,1.1-2.5,2.5v11.3h-1.7
		c-4.5,0-8.3-3.7-8.3-8.2s3.7-8.3,8.3-8.3c0.1,0,0.2,0,0.3,0l0.2,0c0.3,0,0.6-0.1,0.8-0.4c0.2-0.3,0.2-0.6,0.1-0.9
		c-0.4-0.8-0.5-1.7-0.5-2.6c0-3.7,3-6.7,6.7-6.7c0.8,0,1.6,0.1,2.4,0.4c0.5,0.2,1,0,1.2-0.5c2.6-5.5,8.1-9,14.2-9
		c7.5,0,14,5.3,15.4,12.6c0.1,0.4,0.4,0.7,0.8,0.8C57.7,16,62.1,20.9,62.1,26.7z"></path><path fill="#8ac0d6" d="M62.1,26.7c0,5.8-4.3,10.6-9.9,11.3v-0.3c3.3-2,5.4-5.6,5.4-9.8c0-5.8-4.3-10.7-10.1-11.4
		c-0.4,0-0.8-0.4-0.8-0.8c-1.5-7.3-8-12.6-15.5-12.6c-0.7,0-1.3,0-2,0.1c2-0.9,4.2-1.4,6.5-1.4c7.5,0,14,5.3,15.5,12.6
		c0.1,0.4,0.4,0.7,0.8,0.8C57.7,16,62.1,20.9,62.1,26.7z"></path><path fill="#4cbde5" d="M50.2,26.9v20.8H13.8V26.9c0-0.3,0.2-0.5,0.5-0.5h35.3C50,26.4,50.2,26.6,50.2,26.9z"></path><path fill="#edc45f" d="M50.2,49.6v2.8c0,0.3-0.2,0.5-0.5,0.5H39.1c0,0,0,0,0,0H25c0,0,0,0,0,0H14.3c-0.3,0-0.5-0.2-0.5-0.5v-1.7h8.9
		c0,0,0,0,0,0h14.1c0,0,0,0,0,0h10.6c0.3,0,0.5-0.2,0.5-0.5v-0.5H50.2z"></path><path fill="#36aadd" d="M50.2,26.9v20.8H48V26.4h1.7C50,26.4,50.2,26.6,50.2,26.9z"></path></svg>